<svg width="624" height="596" viewBox="0 0 624 596" fill="none" xmlns="http://www.w3.org/2000/svg">
<path d="M591.655 496.519C583.559 488.98 572.727 484.717 561.421 484.619C550.114 484.522 539.204 488.598 530.967 495.997C522.73 503.396 517.802 513.546 517.21 524.332C516.619 535.117 520.409 545.704 527.792 553.884L529.06 555.258H592.313L593.58 553.884C600.961 545.883 604.871 535.496 604.513 524.837C604.155 514.179 599.557 504.052 591.655 496.519Z" fill="#FFDD00"/>
<path d="M591.654 496.519C586.553 491.652 580.275 488.061 573.375 486.063C566.475 484.065 559.166 483.722 552.094 485.065C559.66 486.498 566.697 489.811 572.495 494.67C578.293 499.529 582.648 505.762 585.119 512.741C587.591 519.72 588.093 527.198 586.574 534.422C585.056 541.645 581.57 548.358 576.469 553.884L575.201 555.258H592.264L593.531 553.884C600.918 545.889 604.837 535.505 604.488 524.847C604.139 514.189 599.55 504.058 591.654 496.519Z" fill="#EFC803"/>
<path d="M113.905 40.2067C105.809 32.6671 94.9775 28.404 83.6705 28.3066C72.3636 28.2093 61.4538 32.2851 53.2168 39.6841C44.9797 47.0831 40.0515 57.2338 39.46 68.0191C38.8685 78.8043 42.6594 89.3913 50.042 97.5717L51.3095 98.9453H114.563L115.83 97.5717C123.211 89.5707 127.121 79.1831 126.763 68.5249C126.405 57.8667 121.807 47.7397 113.905 40.2067Z" fill="#40BDFF"/>
<path d="M113.904 40.2067C108.651 35.2027 102.155 31.5529 95.0228 29.5986C87.8911 27.6443 80.357 27.4492 73.125 29.0317C80.5305 30.6594 87.3665 34.0962 92.9634 39.0056C98.5603 43.9151 102.726 50.1288 105.053 57.0382C107.38 63.9476 107.788 71.3158 106.238 78.4212C104.687 85.5266 101.231 92.1255 96.2081 97.5717L94.9406 98.9453H114.441L115.708 97.5717C123.105 89.5852 127.036 79.206 126.701 68.548C126.366 57.89 121.79 47.7548 113.904 40.2067Z" fill="#2197F7"/>
<path d="M198.437 293.344H238.875V292.203C239.343 267.939 244.887 244.01 255.182 221.824L255.645 220.869L254.695 220.334C249.436 217.341 244.395 214.012 239.606 210.369L238.875 209.741L238.095 210.439C214.249 231.699 200.037 261.012 198.486 292.133L198.437 293.344Z" fill="#40BDFF"/>
<path d="M279.021 188.252L283.213 184.248L277.704 186.343L274.365 187.647L273.146 188.182L272.586 188.415C271.058 189.067 269.555 189.75 268.076 190.464C266.931 190.999 265.785 191.558 264.664 192.14L263.567 192.722L262.982 193.025C261.836 193.63 260.666 194.259 259.545 194.911L258.131 195.749C256.888 196.47 255.694 197.239 254.475 198.077L253.427 198.752C252.037 199.66 250.648 200.591 249.186 201.639L248.82 201.895L248.162 202.384L246.431 203.664L247.699 204.596C251.361 207.211 255.169 209.636 259.106 211.859L260.179 212.488L260.788 211.44C265.743 202.961 271.876 195.161 279.021 188.252Z" fill="#2197F7"/>
<path d="M397.313 386.259L398.093 385.561C421.939 364.301 436.151 334.988 437.702 303.867V302.656H397.313V303.797C396.845 328.061 391.3 351.99 381.006 374.176L380.542 375.131L381.493 375.666C386.752 378.659 391.793 381.988 396.581 385.631L397.313 386.259Z" fill="#40BDFF"/>
<path d="M260.179 383.442L259.106 384.071C255.165 386.347 251.357 388.826 247.699 391.497L246.431 392.429L248.162 393.709L248.82 394.198L249.283 394.524C250.632 395.486 252.005 396.425 253.402 397.341L254.451 398.016C255.653 398.792 256.88 399.568 258.131 400.344L259.545 401.183C260.666 401.834 261.836 402.463 262.982 403.068L263.567 403.371L264.664 403.953C265.785 404.535 266.931 405.094 268.076 405.629C269.222 406.165 271.074 407.026 272.586 407.678L273.146 407.934L274.389 408.47L277.729 409.773L283.237 411.869L279.045 407.864C271.893 400.927 265.76 393.095 260.812 384.583L260.179 383.442Z" fill="#40BDFF"/>
<path d="M198.51 303.867C200.061 334.988 214.273 364.301 238.119 385.561L238.899 386.259L239.728 385.631C244.516 381.988 249.557 378.659 254.816 375.666L255.767 375.131L255.304 374.176C244.967 351.998 239.381 328.069 238.875 303.797V302.656H198.437L198.51 303.867Z" fill="#2197F7"/>
<path d="M551.801 536.959C554.742 536.742 557.48 535.446 559.442 533.342C561.404 531.239 562.436 528.491 562.323 525.676C562.209 522.861 560.959 520.198 558.833 518.244C556.708 516.291 553.873 515.2 550.924 515.2C547.974 515.2 545.139 516.291 543.014 518.244C540.889 520.198 539.638 522.861 539.525 525.676C539.411 528.491 540.443 531.239 542.405 533.342C544.367 535.446 547.105 536.742 550.046 536.959H551.801Z" fill="#EFFAFE"/>
<path d="M527.597 561.637C534.559 565.851 542.632 568.089 550.875 568.089C559.118 568.089 567.191 565.851 574.153 561.637C573.379 557.32 571.026 553.406 567.513 550.592C564 547.778 559.555 546.247 554.97 546.271C547.121 546.271 547.219 546.271 546.804 546.271C542.215 546.242 537.764 547.77 534.246 550.585C530.728 553.399 528.371 557.316 527.597 561.637Z" fill="#EFFAFE"/>
<path d="M316.875 357.46H318.045C336.423 358.23 354.441 362.588 370.987 370.265L372.109 370.777L372.621 369.683C382.011 348.866 387.086 326.506 387.562 303.844V302.656H316.875V357.46Z" fill="#2197F7"/>
<path d="M305.736 417.759L307.125 417.945V366.726H305.858C289.066 367.459 272.602 371.418 257.449 378.367L256.279 378.902L256.913 379.973C269.758 401.974 287.089 415.314 305.736 417.759Z" fill="#2197F7"/>
<path d="M316.875 293.344H387.562V292.156C387.12 269.492 382.079 247.125 372.718 226.294L372.206 225.2L371.085 225.712C354.538 233.389 336.52 237.747 318.143 238.516H316.972L316.875 293.344Z" fill="#40BDFF"/>
<path d="M318.264 178.241L316.875 178.055V229.274H318.143C334.934 228.541 351.398 224.582 366.551 217.633L367.721 217.098L367.087 216.027C354.242 194.026 336.911 180.686 318.264 178.241Z" fill="#2197F7"/>
<path d="M361.823 408.353L363.041 407.818L363.602 407.585C365.13 406.933 366.633 406.25 368.111 405.536C369.257 405.001 370.403 404.442 371.524 403.86L372.621 403.278L373.206 402.975C374.351 402.37 375.521 401.741 376.643 401.089L378.056 400.251C379.3 399.53 380.494 398.761 381.713 397.923L382.761 397.248C384.15 396.34 385.54 395.409 387.002 394.361L387.368 394.105L388.026 393.616L389.756 392.336L388.489 391.404C384.826 388.789 381.018 386.364 377.081 384.141L376.009 383.512L375.4 384.56C370.452 393.072 364.319 400.904 357.167 407.841L352.975 411.845L358.483 409.75L361.823 408.353Z" fill="#2197F7"/>
<path d="M316.875 417.922L318.264 417.735C336.911 415.407 354.266 401.974 367.014 380.206L367.648 379.135L366.478 378.6C351.325 371.651 334.861 367.692 318.069 366.959H316.802L316.875 417.922Z" fill="#40BDFF"/>
<path d="M307.125 302.656H236.438V303.844C236.88 326.508 241.921 348.875 251.282 369.706L251.794 370.8L252.915 370.288C269.462 362.611 287.48 358.253 305.858 357.484H307.027L307.125 302.656Z" fill="#40BDFF"/>
<path d="M307.125 238.54H305.955C287.577 237.77 269.559 233.412 253.013 225.735L251.891 225.223L251.379 226.317C241.989 247.134 236.914 269.494 236.438 292.156V293.344H307.125V238.54Z" fill="#2197F7"/>
<path d="M376.009 212.558L377.081 211.929C381.022 209.653 384.83 207.174 388.489 204.502L389.756 203.571L388.026 202.291L387.368 201.802L386.905 201.476C385.556 200.514 384.183 199.575 382.785 198.659L381.737 197.984C380.535 197.208 379.308 196.432 378.056 195.656L376.643 194.817C375.521 194.166 374.351 193.537 373.206 192.932L372.621 192.629L371.524 192.047C370.403 191.465 369.257 190.906 368.111 190.371C366.966 189.835 365.113 188.974 363.602 188.322L363.041 188.066L361.798 187.53L358.459 186.25L352.95 184.155L357.143 188.159C364.294 195.096 370.428 202.928 375.375 211.44L376.009 212.558Z" fill="#40BDFF"/>
<path d="M307.125 178.078L305.736 178.265C287.089 180.593 269.734 194.026 256.986 215.817L256.352 216.888L257.522 217.424C272.675 224.373 289.139 228.332 305.931 229.064H307.198L307.125 178.078Z" fill="#40BDFF"/>
<path d="M49.8467 105.324C56.811 109.534 64.8833 111.768 73.1248 111.768C81.3663 111.768 89.4386 109.534 96.4029 105.324C95.6292 101.008 93.2761 97.0939 89.763 94.2799C86.2498 91.4659 81.8048 89.9345 77.2198 89.9587C69.3711 89.9587 69.4686 89.9587 69.0542 89.9587C64.465 89.929 60.0142 91.4578 56.4959 94.2723C52.9777 97.0869 50.6211 101.004 49.8467 105.324Z" fill="#EFFAFE"/>
<path d="M437.678 292.133C436.127 261.012 421.915 231.699 398.068 210.439L397.288 209.741L396.46 210.369C391.671 214.012 386.63 217.341 381.372 220.334L380.421 220.869L380.884 221.824C391.221 244.002 396.807 267.931 397.313 292.203V293.344H437.8L437.678 292.133Z" fill="#2197F7"/>
<path d="M74.0023 80.6462C76.943 80.4295 79.6815 79.1334 81.6432 77.0298C83.6049 74.9261 84.6374 72.1785 84.5238 69.3635C84.4103 66.5485 83.1597 63.8849 81.0344 61.9317C78.909 59.9784 76.0742 58.8873 73.1248 58.8873C70.1754 58.8873 67.3406 59.9784 65.2152 61.9317C63.0899 63.8849 61.8393 66.5485 61.7257 69.3635C61.6122 72.1785 62.6446 74.9261 64.6064 77.0298C66.5681 79.1334 69.3066 80.4295 72.2473 80.6462H74.0023Z" fill="#EFFAFE"/>
<path d="M34.3444 32.8033C26.6744 40.1292 21.4511 49.4629 19.335 59.6242C17.2189 69.7854 18.3051 80.3178 22.4561 89.8895C26.6071 99.4612 33.6365 107.642 42.6555 113.398C51.6745 119.154 62.278 122.226 73.125 122.226C83.9721 122.226 94.5755 119.154 103.594 113.398C112.613 107.642 119.643 99.4612 123.794 89.8895C127.945 80.3178 129.031 69.7854 126.915 59.6242C124.799 49.4629 119.576 40.1292 111.906 32.8033C101.611 22.9965 87.6647 17.4893 73.125 17.4893C58.5854 17.4893 44.6391 22.9965 34.3444 32.8033ZM51.1875 104.766C52.0778 100.893 54.3283 97.4285 57.5651 94.9467C60.802 92.465 64.8305 91.1156 68.9813 91.1228H77.1469C81.3185 91.0889 85.3755 92.426 88.6375 94.91C91.8994 97.394 94.1679 100.874 95.0625 104.766C88.4442 108.586 80.8582 110.605 73.125 110.605C65.3919 110.605 57.8059 108.586 51.1875 104.766ZM62.9119 69.8438C62.8991 67.9492 63.4656 66.0922 64.542 64.5007C65.6183 62.9092 67.1576 61.6524 68.971 60.8845C70.7845 60.1167 72.7931 59.8711 74.7506 60.1779C76.7081 60.4848 78.5292 61.3307 79.9905 62.612C81.4518 63.8932 82.4898 65.554 82.977 67.3906C83.4643 69.2272 83.3796 71.1597 82.7335 72.951C82.0873 74.7423 80.9077 76.3145 79.3395 77.4747C77.7712 78.6349 75.8825 79.3326 73.905 79.4822H72.2475C69.7148 79.2785 67.354 78.1758 65.6304 76.3917C63.9068 74.6075 62.9456 72.2714 62.9363 69.8438H62.9119ZM105.056 96.8035C102.234 90.6683 97.2726 85.6576 91.0163 82.6252C93.5169 79.4514 95.042 75.6749 95.4205 71.7194C95.7991 67.7638 95.016 63.7858 93.1593 60.2316C91.3025 56.6775 88.4455 53.6879 84.9089 51.5983C81.3722 49.5087 77.2958 48.4018 73.1372 48.4018C68.9786 48.4018 64.9022 49.5087 61.3655 51.5983C57.8289 53.6879 54.9719 56.6775 53.1151 60.2316C51.2584 63.7858 50.4753 67.7638 50.8538 71.7194C51.2324 75.6749 52.7575 79.4514 55.2581 82.6252C49.0018 85.6576 44.0399 90.6683 41.2181 96.8035C35.7748 90.9313 32.2229 83.6826 30.9892 75.9287C29.7555 68.1747 30.8927 60.2454 34.2639 53.0939C37.6351 45.9424 43.097 39.8729 49.993 35.6151C56.889 31.3573 64.9258 29.0922 73.1372 29.0922C81.3486 29.0922 89.3854 31.3573 96.2814 35.6151C103.177 39.8729 108.639 45.9424 112.011 53.0939C115.382 60.2454 116.519 68.1747 115.285 75.9287C114.052 83.6826 110.5 90.9313 105.056 96.8035Z" fill="#263238"/>
<path d="M589.656 563.197C597.326 555.871 602.549 546.537 604.665 536.376C606.781 526.215 605.695 515.682 601.544 506.111C597.393 496.539 590.363 488.358 581.345 482.602C572.326 476.846 561.722 473.774 550.875 473.774C540.028 473.774 529.425 476.846 520.406 482.602C511.387 488.358 504.357 496.539 500.206 506.111C496.055 515.682 494.969 526.215 497.085 536.376C499.201 546.537 504.424 555.871 512.094 563.197C522.389 573.004 536.335 578.511 550.875 578.511C565.415 578.511 579.361 573.004 589.656 563.197ZM518.968 553.116C513.525 547.244 509.973 539.995 508.739 532.241C507.506 524.487 508.643 516.558 512.014 509.406C515.385 502.255 520.847 496.185 527.743 491.928C534.639 487.67 542.676 485.405 550.887 485.405C559.099 485.405 567.135 487.67 574.031 491.928C580.927 496.185 586.389 502.255 589.761 509.406C593.132 516.558 594.269 524.487 593.035 532.241C591.802 539.995 588.25 547.244 582.806 553.116C579.985 546.981 575.023 541.97 568.766 538.938C571.267 535.764 572.792 531.987 573.171 528.032C573.549 524.076 572.766 520.098 570.909 516.544C569.053 512.99 566.196 510 562.659 507.911C559.122 505.821 555.046 504.714 550.887 504.714C546.729 504.714 542.652 505.821 539.116 507.911C535.579 510 532.722 512.99 530.865 516.544C529.008 520.098 528.225 524.076 528.604 528.032C528.982 531.987 530.508 535.764 533.008 538.938C526.743 541.966 521.772 546.977 518.944 553.116H518.968ZM561.064 526.156C561.053 528.591 560.085 530.934 558.352 532.719C556.618 534.504 554.245 535.602 551.704 535.795H550.046C548.076 535.641 546.196 534.942 544.635 533.783C543.075 532.624 541.902 531.055 541.261 529.269C540.619 527.484 540.537 525.558 541.024 523.728C541.511 521.898 542.545 520.244 544.002 518.967C545.458 517.69 547.272 516.847 549.222 516.54C551.173 516.233 553.175 516.476 554.983 517.238C556.791 518.001 558.327 519.251 559.402 520.835C560.478 522.419 561.047 524.268 561.039 526.156H561.064ZM528.938 561.078C529.828 557.206 532.078 553.741 535.315 551.259C538.552 548.777 542.58 547.428 546.731 547.435H554.897C559.069 547.401 563.126 548.739 566.387 551.223C569.649 553.707 571.918 557.186 572.813 561.078C566.195 564.901 558.609 566.922 550.875 566.922C543.141 566.922 535.555 564.901 528.938 561.078Z" fill="#263238"/>
<path d="M79.2188 298V162.969C79.2188 161.425 78.5767 159.945 77.4339 158.853C76.2911 157.762 74.7412 157.148 73.125 157.148C71.5088 157.148 69.9589 157.762 68.8161 158.853C67.6733 159.945 67.0312 161.425 67.0312 162.969V298C67.1022 360.034 92.9341 419.507 138.859 463.372C184.785 507.236 247.052 531.909 312 531.977H438.75L414.692 554.978C413.548 556.071 412.905 557.554 412.905 559.099C412.905 560.645 413.548 562.127 414.692 563.22C415.836 564.313 417.388 564.927 419.006 564.927C420.624 564.927 422.176 564.313 423.321 563.22L457.787 530.3C458.354 529.76 458.805 529.117 459.112 528.41C459.419 527.703 459.577 526.945 459.577 526.18C459.577 525.414 459.419 524.656 459.112 523.949C458.805 523.242 458.354 522.599 457.787 522.059L423.321 489.139C422.754 488.598 422.081 488.169 421.341 487.876C420.601 487.583 419.807 487.432 419.006 487.432C418.205 487.432 417.412 487.583 416.671 487.876C415.931 488.169 415.258 488.598 414.692 489.139C414.125 489.68 413.676 490.323 413.369 491.03C413.063 491.737 412.905 492.495 412.905 493.26C412.905 494.025 413.063 494.783 413.369 495.49C413.676 496.197 414.125 496.839 414.692 497.381L438.75 520.336H312C250.284 520.268 191.117 496.822 147.477 455.14C103.838 413.459 79.2897 356.946 79.2188 298Z" fill="#263238"/>
<path d="M401.432 199.148C400.725 198.566 400.018 198.03 399.311 197.472L398.653 196.959C397.223 195.842 395.769 194.748 394.29 193.677L393.437 193.048C392.039 192.055 390.626 191.092 389.196 190.161L388.026 189.393C386.709 188.555 385.369 187.74 384.028 186.948L382.444 186.017C381.249 185.342 380.006 184.69 378.836 184.038L376.716 182.897L373.864 181.501C367.583 178.453 361.063 175.877 354.364 173.795L353.803 173.608C352.194 173.119 350.586 172.654 348.928 172.235L347.709 171.909C346.198 171.513 344.687 171.164 343.176 170.815L341.469 170.442L337.228 169.604L335.034 169.231L331.11 168.649L328.331 168.3L324.87 167.928L321.287 167.625L318.557 167.439C316.387 167.439 314.194 167.276 312 167.276C309.806 167.276 307.612 167.276 305.443 167.439L302.713 167.625L299.032 167.904L295.547 168.277L292.768 168.603L288.844 169.208L286.674 169.581C285.244 169.844 283.822 170.124 282.409 170.419L280.727 170.791C279.191 171.14 277.68 171.49 276.169 171.885L274.974 172.211C273.341 172.654 271.708 173.096 270.099 173.608L269.563 173.771C262.864 175.853 256.344 178.43 250.063 181.477L247.211 182.874L245.091 184.015C243.872 184.667 242.653 185.319 241.483 185.994L239.899 186.925C238.558 187.717 237.217 188.532 235.877 189.393L234.707 190.161C233.277 191.092 231.855 192.055 230.441 193.048L229.588 193.653C228.109 194.724 226.655 195.819 225.225 196.936L224.567 197.448C223.86 198.007 223.129 198.566 222.422 199.125C222.276 199.257 222.138 199.397 222.007 199.544C207.258 211.782 195.432 226.902 187.327 243.881C179.222 260.861 175.028 279.304 175.028 297.965C175.028 316.626 179.222 335.069 187.327 352.049C195.432 369.028 207.258 384.148 222.007 396.387C222.138 396.533 222.276 396.673 222.422 396.806C223.129 397.388 223.836 397.923 224.542 398.482L225.201 398.994C226.631 400.112 228.085 401.206 229.564 402.277L230.417 402.905C231.814 403.899 233.228 404.861 234.658 405.792L235.828 406.561C237.144 407.399 238.485 408.213 239.826 409.005L241.41 409.96C242.604 410.635 243.847 411.287 244.993 411.938L247.114 413.079L249.966 414.476C256.247 417.524 262.766 420.1 269.466 422.182L270.026 422.368C271.635 422.857 273.244 423.323 274.901 423.742L276.12 424.068C277.631 424.464 279.142 424.813 280.654 425.162L282.36 425.535L286.601 426.373L288.795 426.745L292.719 427.327L295.498 427.677L298.959 428.049L302.64 428.328L305.37 428.515C307.539 428.515 309.733 428.678 311.927 428.678C314.121 428.678 316.314 428.678 318.484 428.515L321.214 428.328L324.894 428.049L328.356 427.677L331.134 427.327L335.059 426.745L337.252 426.373L341.494 425.535L343.2 425.162C344.711 424.813 346.247 424.464 347.734 424.068L348.952 423.742C350.586 423.3 352.194 422.857 353.827 422.368L354.388 422.182C361.087 420.1 367.607 417.524 373.888 414.476L376.74 413.079L378.861 411.938C380.079 411.287 381.298 410.635 382.468 409.96L384.052 409.028C385.393 408.237 386.734 407.422 388.05 406.584L389.22 405.815C390.65 404.884 392.064 403.922 393.461 402.929L394.314 402.3C395.793 401.245 397.247 400.15 398.677 399.017L399.336 398.505C400.042 397.946 400.774 397.411 401.456 396.829C401.602 396.696 401.74 396.556 401.871 396.41C416.62 384.172 428.446 369.052 436.551 352.072C444.656 335.093 448.85 316.649 448.85 297.988C448.85 279.327 444.656 260.884 436.551 243.905C428.446 226.925 416.62 211.805 401.871 199.567C401.732 199.42 401.586 199.28 401.432 199.148ZM237.339 202.756L237.802 202.43C239.151 201.484 240.516 200.56 241.897 199.66L242.946 198.985C244.148 198.224 245.359 197.448 246.577 196.657L247.991 195.819C249.112 195.167 250.258 194.561 251.404 193.956L253.061 193.071C254.182 192.489 255.304 191.954 256.449 191.418C257.595 190.883 259.423 190.045 260.934 189.393L262.714 188.625L266.029 187.321C258.794 194.327 252.587 202.237 247.577 210.835C243.668 208.583 239.893 206.127 236.267 203.478L237.339 202.756ZM226.687 211.277C231.514 214.954 236.595 218.314 241.897 221.335C231.527 243.666 225.941 267.754 225.469 292.18H187.541C189.096 261.38 203.135 232.367 226.687 211.277ZM226.687 384.723C203.099 363.649 189.024 334.633 187.444 303.82H225.469C225.941 328.246 231.527 352.334 241.897 374.665C236.595 377.686 231.514 381.046 226.687 384.723ZM262.592 407.282L260.812 406.514C259.301 405.862 257.806 405.187 256.327 404.488C255.182 403.953 254.061 403.394 252.939 402.835L251.282 401.951C250.136 401.345 248.991 400.717 247.869 400.088L246.456 399.25C245.237 398.521 244.026 397.745 242.824 396.922L241.776 396.247C240.394 395.347 239.029 394.423 237.681 393.476L237.217 393.15L236.121 392.312C239.746 389.664 243.522 387.208 247.431 384.956C252.441 393.554 258.648 401.464 265.882 408.47L262.592 407.282ZM305.833 416.595C287.016 414.127 270.148 400.298 257.887 379.624C272.893 372.719 289.197 368.761 305.833 367.983V416.595ZM305.833 356.343C287.289 357.14 269.11 361.536 252.403 369.264C243.144 348.558 238.178 326.333 237.778 303.82H306.028L305.833 356.343ZM305.833 292.18H237.583C237.983 269.667 242.949 247.442 252.208 226.736C268.915 234.464 287.094 238.86 305.638 239.657L305.833 292.18ZM305.833 227.993C289.197 227.216 272.893 223.257 257.887 216.353C270.075 195.586 286.991 181.85 305.833 179.382V227.993ZM361.262 188.718L363.041 189.486C364.552 190.138 366.047 190.813 367.526 191.512C368.672 192.047 369.793 192.606 370.914 193.165L372.572 194.049C373.717 194.655 374.863 195.283 375.984 195.912L377.398 196.75C378.617 197.479 379.827 198.255 381.03 199.078L382.078 199.753C383.459 200.653 384.824 201.577 386.173 202.524L386.636 202.85L387.733 203.688C384.107 206.336 380.331 208.792 376.423 211.045C371.413 202.446 365.206 194.536 357.971 187.53L361.262 188.718ZM318.021 179.405C336.838 181.873 353.706 195.702 365.966 216.376C350.961 223.281 334.657 227.239 318.021 228.017V179.405ZM318.021 239.657C336.564 238.86 354.744 234.464 371.451 226.736C380.709 247.442 385.676 269.667 386.076 292.18H317.826L318.021 239.657ZM318.021 303.82H386.271C385.871 326.333 380.904 348.558 371.646 369.264C354.939 361.536 336.759 357.14 318.216 356.343L318.021 303.82ZM318.021 416.595V368.007C334.657 368.784 350.961 372.743 365.966 379.647C353.779 400.438 336.911 414.127 318.094 416.595H318.021ZM386.587 393.313L386.124 393.639C384.776 394.586 383.411 395.51 382.029 396.41L380.981 397.085C379.779 397.846 378.568 398.622 377.349 399.413L375.936 400.251C374.814 400.903 373.669 401.508 372.523 402.114L370.866 402.998C369.744 403.581 368.623 404.116 367.477 404.651C366.332 405.187 364.504 406.025 362.992 406.677L361.213 407.445L357.898 408.749C365.133 401.743 371.34 393.833 376.35 385.235C380.258 387.487 384.034 389.943 387.66 392.592L386.587 393.313ZM397.166 384.793C392.34 381.116 387.258 377.756 381.956 374.735C392.327 352.404 397.913 328.316 398.385 303.89H436.41C434.849 334.658 420.83 363.643 397.312 384.723L397.166 384.793ZM436.41 292.25H398.385C397.913 267.824 392.327 243.736 381.956 221.405C387.31 218.367 392.441 214.983 397.312 211.277C420.865 232.367 434.904 261.38 436.459 292.18L436.41 292.25Z" fill="#263238"/>
<path d="M209.406 32.8033C208.84 32.2613 208.167 31.8312 207.427 31.5378C206.687 31.2444 205.893 31.0933 205.091 31.0933C204.29 31.0933 203.496 31.2444 202.756 31.5378C202.016 31.8312 201.343 32.2613 200.777 32.8033L166.311 65.723C165.743 66.2636 165.293 66.9059 164.986 67.613C164.679 68.3201 164.521 69.0782 164.521 69.8438C164.521 70.6093 164.679 71.3674 164.986 72.0745C165.293 72.7816 165.743 73.4239 166.311 73.9645L200.777 106.884C201.921 107.977 203.473 108.591 205.091 108.591C206.71 108.591 208.262 107.977 209.406 106.884C210.55 105.791 211.193 104.309 211.193 102.763C211.193 101.218 210.55 99.7356 209.406 98.6427L185.25 75.6641H312C373.716 75.7318 432.883 99.1782 476.523 140.86C520.163 182.541 544.71 239.054 544.781 298V433.031C544.781 434.575 545.423 436.055 546.566 437.147C547.709 438.238 549.259 438.852 550.875 438.852C552.491 438.852 554.041 438.238 555.184 437.147C556.327 436.055 556.969 434.575 556.969 433.031V298C556.898 235.966 531.066 176.493 485.141 132.628C439.216 88.764 376.948 64.0912 312 64.0234H185.25L209.308 41.0448C209.882 40.5103 210.34 39.8729 210.656 39.1691C210.971 38.4653 211.138 37.709 211.147 36.9434C211.157 36.1778 211.007 35.418 210.708 34.7076C210.41 33.9972 209.967 33.35 209.406 32.8033Z" fill="#263238"/>
<path d="M461.906 199.031H452.156V189.719C452.156 189.101 451.899 188.509 451.442 188.073C450.985 187.636 450.365 187.391 449.719 187.391C449.072 187.391 448.452 187.636 447.995 188.073C447.538 188.509 447.281 189.101 447.281 189.719V199.031H437.531C436.885 199.031 436.265 199.277 435.808 199.713C435.351 200.15 435.094 200.742 435.094 201.36C435.094 201.977 435.351 202.569 435.808 203.006C436.265 203.442 436.885 203.688 437.531 203.688H447.281V213C447.281 213.618 447.538 214.21 447.995 214.646C448.452 215.083 449.072 215.328 449.719 215.328C450.365 215.328 450.985 215.083 451.442 214.646C451.899 214.21 452.156 213.618 452.156 213V203.688H461.906C462.553 203.688 463.173 203.442 463.63 203.006C464.087 202.569 464.344 201.977 464.344 201.36C464.344 200.742 464.087 200.15 463.63 199.713C463.173 199.277 462.553 199.031 461.906 199.031Z" fill="#40BDFF"/>
<path d="M143.812 368.496H134.062V359.183C134.062 358.566 133.806 357.974 133.349 357.537C132.891 357.1 132.271 356.855 131.625 356.855C130.979 356.855 130.359 357.1 129.901 357.537C129.444 357.974 129.188 358.566 129.188 359.183V368.496H119.438C118.791 368.496 118.171 368.741 117.714 369.178C117.257 369.614 117 370.206 117 370.824C117 371.441 117.257 372.033 117.714 372.47C118.171 372.907 118.791 373.152 119.438 373.152H129.188V382.464C129.188 383.082 129.444 383.674 129.901 384.111C130.359 384.547 130.979 384.793 131.625 384.793C132.271 384.793 132.891 384.547 133.349 384.111C133.806 383.674 134.062 383.082 134.062 382.464V373.152H143.812C144.459 373.152 145.079 372.907 145.536 372.47C145.993 372.033 146.25 371.441 146.25 370.824C146.25 370.206 145.993 369.614 145.536 369.178C145.079 368.741 144.459 368.496 143.812 368.496Z" fill="#FFDD00"/>
<path d="M475.629 44.2344H465.879V34.9219C465.879 34.3044 465.623 33.7123 465.165 33.2756C464.708 32.839 464.088 32.5938 463.442 32.5938C462.795 32.5938 462.175 32.839 461.718 33.2756C461.261 33.7123 461.004 34.3044 461.004 34.9219V44.2344H451.254C450.608 44.2344 449.988 44.4797 449.531 44.9163C449.074 45.3529 448.817 45.945 448.817 46.5625C448.817 47.18 449.074 47.7721 449.531 48.2087C449.988 48.6453 450.608 48.8906 451.254 48.8906H461.004V58.2031C461.004 58.8206 461.261 59.4128 461.718 59.8494C462.175 60.286 462.795 60.5312 463.442 60.5312C464.088 60.5312 464.708 60.286 465.165 59.8494C465.623 59.4128 465.879 58.8206 465.879 58.2031V48.8906H475.629C476.276 48.8906 476.896 48.6453 477.353 48.2087C477.81 47.7721 478.067 47.18 478.067 46.5625C478.067 45.945 477.81 45.3529 477.353 44.9163C476.896 44.4797 476.276 44.2344 475.629 44.2344Z" fill="#40BDFF"/>
<path d="M149.663 158.312H139.913V149C139.913 148.383 139.656 147.79 139.199 147.354C138.742 146.917 138.122 146.672 137.475 146.672C136.829 146.672 136.209 146.917 135.752 147.354C135.294 147.79 135.038 148.383 135.038 149V158.312H125.288C124.641 158.312 124.021 158.558 123.564 158.994C123.107 159.431 122.85 160.023 122.85 160.641C122.85 161.258 123.107 161.85 123.564 162.287C124.021 162.723 124.641 162.969 125.288 162.969H135.038V172.281C135.038 172.899 135.294 173.491 135.752 173.927C136.209 174.364 136.829 174.609 137.475 174.609C138.122 174.609 138.742 174.364 139.199 173.927C139.656 173.491 139.913 172.899 139.913 172.281V162.969H149.663C150.309 162.969 150.929 162.723 151.386 162.287C151.843 161.85 152.1 161.258 152.1 160.641C152.1 160.023 151.843 159.431 151.386 158.994C150.929 158.558 150.309 158.312 149.663 158.312Z" fill="#40BDFF"/>
<path d="M93.8438 497.381H84.0938V488.068C84.0938 487.451 83.8369 486.858 83.3798 486.422C82.9227 485.985 82.3027 485.74 81.6562 485.74C81.0098 485.74 80.3898 485.985 79.9327 486.422C79.4756 486.858 79.2188 487.451 79.2188 488.068V497.381H69.4688C68.8223 497.381 68.2023 497.626 67.7452 498.063C67.2881 498.499 67.0312 499.091 67.0312 499.709C67.0312 500.326 67.2881 500.918 67.7452 501.355C68.2023 501.792 68.8223 502.037 69.4688 502.037H79.2188V511.349C79.2188 511.967 79.4756 512.559 79.9327 512.996C80.3898 513.432 81.0098 513.678 81.6562 513.678C82.3027 513.678 82.9227 513.432 83.3798 512.996C83.8369 512.559 84.0938 511.967 84.0938 511.349V502.037H93.8438C94.4902 502.037 95.1102 501.792 95.5673 501.355C96.0244 500.918 96.2812 500.326 96.2812 499.709C96.2812 499.091 96.0244 498.499 95.5673 498.063C95.1102 497.626 94.4902 497.381 93.8438 497.381Z" fill="#FFDD00"/>
<path d="M334.815 552.906H325.065V543.594C325.065 542.976 324.808 542.384 324.351 541.948C323.894 541.511 323.274 541.266 322.627 541.266C321.981 541.266 321.361 541.511 320.904 541.948C320.447 542.384 320.19 542.976 320.19 543.594V552.906H310.44C309.793 552.906 309.173 553.152 308.716 553.588C308.259 554.025 308.002 554.617 308.002 555.235C308.002 555.852 308.259 556.444 308.716 556.881C309.173 557.317 309.793 557.563 310.44 557.563H320.19V566.875C320.19 567.493 320.447 568.085 320.904 568.521C321.361 568.958 321.981 569.203 322.627 569.203C323.274 569.203 323.894 568.958 324.351 568.521C324.808 568.085 325.065 567.493 325.065 566.875V557.563H334.815C335.461 557.563 336.081 557.317 336.539 556.881C336.996 556.444 337.252 555.852 337.252 555.235C337.252 554.617 336.996 554.025 336.539 553.588C336.081 553.152 335.461 552.906 334.815 552.906Z" fill="#40BDFF"/>
<path d="M565.5 125.719C562.607 125.719 559.78 124.9 557.375 123.365C554.97 121.83 553.095 119.648 551.988 117.096C550.881 114.543 550.592 111.735 551.156 109.025C551.72 106.315 553.113 103.826 555.159 101.873C557.204 99.919 559.81 98.5886 562.647 98.0497C565.484 97.5107 568.424 97.7873 571.097 98.8446C573.769 99.9018 576.053 101.692 577.66 103.989C579.267 106.287 580.125 108.987 580.125 111.75C580.125 115.455 578.584 119.008 575.841 121.627C573.099 124.247 569.379 125.719 565.5 125.719ZM565.5 102.438C563.572 102.438 561.687 102.984 560.083 104.007C558.48 105.03 557.23 106.485 556.492 108.186C555.754 109.888 555.561 111.76 555.937 113.567C556.314 115.373 557.242 117.033 558.606 118.335C559.969 119.637 561.707 120.524 563.598 120.884C565.489 121.243 567.45 121.058 569.231 120.354C571.013 119.649 572.535 118.455 573.607 116.924C574.678 115.392 575.25 113.592 575.25 111.75C575.25 109.28 574.223 106.912 572.394 105.165C570.566 103.419 568.086 102.438 565.5 102.438Z" fill="#FFDD00"/>
<path d="M280.313 53.5469C277.42 53.5469 274.592 52.7276 272.187 51.1927C269.782 49.6578 267.908 47.4762 266.801 44.9237C265.694 42.3713 265.404 39.5626 265.969 36.853C266.533 34.1433 267.926 31.6543 269.971 29.7007C272.016 27.7472 274.622 26.4168 277.459 25.8778C280.296 25.3388 283.237 25.6154 285.909 26.6727C288.582 27.73 290.866 29.5204 292.473 31.8175C294.08 34.1147 294.937 36.8154 294.937 39.5781C294.937 43.2829 293.397 46.8359 290.654 49.4555C287.911 52.0752 284.191 53.5469 280.313 53.5469ZM280.313 30.2656C278.384 30.2656 276.499 30.8118 274.896 31.8351C273.292 32.8583 272.043 34.3128 271.305 36.0144C270.567 37.716 270.374 39.5885 270.75 41.3949C271.126 43.2014 272.055 44.8607 273.418 46.1631C274.782 47.4654 276.519 48.3524 278.41 48.7117C280.302 49.071 282.262 48.8866 284.044 48.1818C285.825 47.4769 287.348 46.2833 288.419 44.7519C289.491 43.2204 290.062 41.42 290.062 39.5781C290.062 37.1083 289.035 34.7396 287.207 32.9932C285.378 31.2468 282.898 30.2656 280.313 30.2656Z" fill="#FFDD00"/>
<path d="M493.618 426.35H487.305L491.766 422.089C492.165 421.644 492.374 421.071 492.35 420.485C492.326 419.899 492.072 419.343 491.638 418.929C491.204 418.514 490.622 418.271 490.008 418.248C489.395 418.226 488.795 418.425 488.329 418.806L483.868 423.067V417.037C483.868 416.42 483.611 415.827 483.154 415.391C482.697 414.954 482.077 414.709 481.431 414.709C480.784 414.709 480.164 414.954 479.707 415.391C479.25 415.827 478.993 416.42 478.993 417.037V423.067L474.533 418.806C474.066 418.425 473.466 418.226 472.853 418.248C472.24 418.271 471.658 418.514 471.223 418.929C470.789 419.343 470.535 419.899 470.511 420.485C470.488 421.071 470.696 421.644 471.096 422.089L475.556 426.35H469.243C468.597 426.35 467.977 426.595 467.52 427.031C467.062 427.468 466.806 428.06 466.806 428.678C466.806 429.295 467.062 429.887 467.52 430.324C467.977 430.761 468.597 431.006 469.243 431.006H475.556L471.096 435.359C470.696 435.805 470.488 436.378 470.511 436.964C470.535 437.55 470.789 438.105 471.223 438.52C471.658 438.935 472.24 439.177 472.853 439.2C473.466 439.223 474.066 439.023 474.533 438.642L478.993 434.382V440.411C478.993 441.029 479.25 441.621 479.707 442.058C480.164 442.494 480.784 442.74 481.431 442.74C482.077 442.74 482.697 442.494 483.154 442.058C483.611 441.621 483.868 441.029 483.868 440.411V434.382L488.329 438.642C488.795 439.023 489.395 439.223 490.008 439.2C490.622 439.177 491.204 438.935 491.638 438.52C492.072 438.105 492.326 437.55 492.35 436.964C492.374 436.378 492.165 435.805 491.766 435.359L487.305 431.099H493.618C494.265 431.099 494.885 430.854 495.342 430.417C495.799 429.98 496.056 429.388 496.056 428.771C496.056 428.153 495.799 427.561 495.342 427.125C494.885 426.688 494.265 426.443 493.618 426.443V426.35Z" fill="#40BDFF"/>
</svg>
